# AST/ASF file generated using VICON BodyLanguage
# -----------------------------------------------
:version 1.10
:name VICON
:units
  mass 1.0
  length 0.45
  angle deg
:documentation
   .ast/.asf automatically generated from VICON data using
   VICON BodyBuilder and BodyLanguage model FoxedUp or BRILLIANT.MOD
:root
   order TX TY TZ RX RY RZ
   axis XYZ
   position 0 0 0  
   orientation 0 0 0 
:bonedata
  begin
     id 1 
     name lhipjoint
     direction 0.722297 -0.617336 0.311742 
     length 2.6635 
     axis 0 0 0  XYZ
  end
  begin
     id 2 
     name lfemur
     direction 0.34202 -0.939693 0  
     length 7.39349  
     axis 0 0 20  XYZ
    dof rx ry rz
    limits (-160.0 20.0)
           (-70.0 70.0)
           (-60.0 70.0)
  end
  begin
     id 3 
     name ltibia
     direction 0.34202 -0.939693 0   
     length 7.36294   
     axis 0 0 20   XYZ
    dof rx
    limits (-10.0 170.0)
  end
  begin
     id 4 
     name lfoot
     direction 0.104879 -0.288152 0.951824   
     length 2.16981   
     axis -90 7.62852e-016 20   XYZ
    dof rx rz
    limits (-45.0 90.0)
           (-70.0 20.0)
  end
  begin
     id 5 
     name ltoes
     direction 1.53586e-011 -4.21895e-011 1   
     length 1.08218   
     axis -90 7.62852e-016 20   XYZ
    dof rx
    limits (-90.0 20.0)
  end
  begin
     id 6 
     name rhipjoint
     direction -0.75102 -0.589393 0.297631   
     length 2.78977  
     axis 0 0 0  XYZ 
  end
  begin
     id 7 
     name rfemur
     direction -0.34202 -0.939693 0   
     length 7.46076   
     axis 0 0 -20   XYZ
    dof rx ry rz
    limits (-160.0 20.0)
           (-70.0 70.0)
           (-70.0 60.0)
  end
  begin
     id 8 
     name rtibia
     direction -0.34202 -0.939693 0   
     length 7.31726   
     axis 0 0 -20   XYZ
    dof rx
    limits (-10.0 170.0)
 end
 begin
     id 9 
     name rfoot
     direction -0.107991 -0.296704 0.948844   
     length 2.09388  
     axis -90 -7.62852e-016 -20   XYZ
    dof rx rz
    limits (-45.0 90.0)
           (-20.0 70.0)
  end
  begin
     id 10 
     name rtoes
     direction -1.53559e-011 -4.21911e-011 1   
     length 1.04433   
     axis -90 -7.62852e-016 -20   XYZ
    dof rx
    limits (-90.0 20.0)
  end
  begin
     id 11 
     name lowerback
     direction 0.0165164 0.98272 0.184358   
     length 1.71896   
     axis 0 0 0   XYZ
    dof rx ry rz
    limits (-20.0 45.0)
           (-30.0 30.0)
           (-30.0 30.0)
  end
  begin
     id 12 
     name upperback
     direction -0.00887249 0.992297 0.123566   
     length 1.71504   
     axis 0 0 0   XYZ
    dof rx ry rz
    limits (-20.0 45.0)
           (-30.0 30.0)
           (-30.0 30.0)
  end
  begin
     id 13 
     name thorax
     direction -0.0157026 0.998908 0.0440032   
     length 1.77022   
     axis 0 0 0   XYZ
    dof rx ry rz
    limits (-20.0 45.0)
           (-30.0 30.0)
           (-30.0 30.0)
  end
  begin
     id 14 
     name lowerneck
     direction -0.0238856 0.998137 0.0561411   
     length 1.89341   
     axis 0 0 0   XYZ
    dof rx ry rz
    limits (-20.0 45.0)
           (-30.0 30.0)
           (-30.0 30.0)
  end
  begin
     id 15 
     name upperneck
     direction 0.0276574 0.952253 -0.304056   
     length 1.86999   
     axis 0 0 0   XYZ
    dof rx ry rz
    limits (-20.0 45.0)
           (-30.0 30.0)
           (-30.0 30.0)
  end
  begin
     id 16
     name head
     direction 0.00800083 0.994258 -0.106712  
     length 1.91492  
     axis 0 0 0   XYZ
    dof rx ry rz
    limits (-20.0 45.0)
           (-30.0 30.0)
           (-30.0 30.0)
  end
  begin
     id 17 
     name lclavicle
     direction 0.97203 0.225407 0.06595  
     length 3.34889  
     axis 0 0 0   XYZ
    dof ry rz
    limits (-20.0 10.0)
           (0.0 20.0)
  end
  begin
     id 18 
     name lhumerus
     direction 1 -4.48973e-011 2.20267e-027   
     length 4.85645   
     axis 180 -30 -90   XYZ
    dof rx ry rz
    limits (-60.0 90.0)
           (-90.0 90.0)
           (-90.0 90.0)
  end
  begin
     id 19
     name lradius
     direction 1 -4.4897e-011 4.60472e-027   
     length 2.79874   
     axis 180 -30 -90   XYZ
    dof rx
    limits (-10.0 170.0)
  end
  begin
     id 20
     name lwrist
     direction 1 -4.48952e-011 1.14928e-026   
     length 1.39937   
     axis -6.29373e-015 90 90   XYZ
    dof ry
    limits (-180.0 0.0)
 end
  begin
     id 21 
     name lhand
     direction 1 -4.48967e-011 2.29886e-026   
     length 0.573398   
     axis -1.46689e-014 90 90   XYZ
    dof rx rz
    limits (-90.0 90.0)
           (-45.0 45.0)
  end
  begin
     id 22 
     name lfingers
     direction 1 -4.48955e-011 4.59726e-026   
     length 0.462289   
     axis -2.93383e-014 90 90   XYZ
    dof rx
    limits (0.0 90.0)
  end
  begin
     id 23
     name lthumb
     direction 0.707107 -6.34866e-011 0.707107   
     length 0.663757   
     axis -90 45 5.69224e-014   XYZ
    dof rx rz
    limits (-45.0 45.0)
           (-45.0 45.0)
  end
  begin
     id 24 
     name rclavicle
     direction -0.981571 0.157346 0.108443   
     length 3.35257  
     axis 0 0 0   XYZ 
    dof ry rz
    limits (-10.0 20.0)
           (-20.0 0.0)
  end
  begin
     id 25 
     name rhumerus
     direction -1 -4.48967e-011 8.58308e-029  
     length 4.67018   
     axis 180 30 90   XYZ
    dof rx ry rz
    limits (-90.0 60.0)
           (-90.0 90.0)
           (-90.0 90.0)
  end
  begin
     id 26 
     name rradius
     direction -1 -4.48958e-011 4.52548e-027   
     length 2.65534   
     axis 180 30 90   XYZ
    dof rx
    limits (-10.0 170.0)
  end
  begin
     id 27 
     name rwrist
     direction -1 -4.48977e-011 1.14952e-026   
     length 1.32767   
     axis -6.29373e-015 -90 -90   XYZ
    dof ry
    limits (-180.0 0.0)
  end
  begin
     id 28
     name rhand
     direction -1 -4.48924e-011 2.29804e-026   
     length 0.594069   
     axis -1.46689e-014 -90 -90   XYZ
    dof rx rz
    limits (-90.0 90.0)
           (-45.0 45.0)
  end
  begin
     id 29
     name rfingers
     direction -1 -4.48998e-011 4.59888e-026   
     length 0.478954   
     axis -2.93383e-014 -90 -90   XYZ
    dof rx
    limits (0.0 90.0)
  end
  begin
     id 30
     name rthumb
     direction -0.707107 -6.34933e-011 0.707107   
     length 0.687685   
     axis -90 -45 -5.69224e-014   XYZ
    dof rx rz
    limits (-45.0 45.0)
           (-45.0 45.0)
  end
:hierarchy
  begin
    root lhipjoint rhipjoint lowerback
    lhipjoint lfemur
    lfemur ltibia
    ltibia lfoot
    lfoot ltoes
    rhipjoint rfemur
    rfemur rtibia
    rtibia rfoot
    rfoot rtoes
    lowerback upperback
    upperback thorax
    thorax lowerneck lclavicle rclavicle
    lowerneck upperneck
    upperneck head
    lclavicle lhumerus
    lhumerus lradius
    lradius lwrist
    lwrist lhand lthumb
    lhand lfingers
    rclavicle rhumerus
    rhumerus rradius
    rradius rwrist
    rwrist rhand rthumb
    rhand rfingers
  end

#!OML:ASF E:\pregnant2\Project 1\Capture day 1\Session 1\pregnant2.ASF
:FULLY-SPECIFIED
:DEGREES
1072
root -4.29679 17.4008 20.1291 28.1399 4.80034 1.21592
lowerback -17.0277 -0.262933 0.252567
upperback -14.2832 -0.316742 0.195225
thorax -5.85236 -0.149658 0.0277728
lowerneck -15.2446 -5.0591 -8.29481
upperneck 30.7119 -6.2351 3.87854
head 13.2593 -3.21129 1.94437
rclavicle 0 -1.05356e-014
rhumerus -37.3872 33.1537 -63.0843
rradius 61.2879
rwrist 23.6097
rhand -1.70498 -6.34469
rfingers 7.12502
rthumb 23.9563 -34.8701
lclavicle 0 -1.05356e-014
lhumerus -46.3053 -26.8749 71.2237
lradius 74.3149
lwrist -11.8868
lhand 6.77317 19.4279
lfingers 7.12502
lthumb 32.0598 46.6218
rfemur -39.4291 18.2812 7.53958
rtibia 28.961
rfoot -20.6521 -30.6742
rtoes 5.04779
lfemur -36.5211 -9.28708 -14.9065
ltibia 23.4897
lfoot -11.9645 18.4201
ltoes -3.6008
1073
root -4.29879 17.401 20.1248 28.1096 4.80071 1.2149
lowerback -17.0494 -0.26896 0.234221
upperback -14.2924 -0.322417 0.19929
thorax -5.85148 -0.150774 0.0416631
lowerneck -15.2676 -5.04394 -8.29933
upperneck 30.8192 -6.20523 3.85343
head 13.3068 -3.2024 1.94058
rclavicle 6.01324e-015 -5.96354e-015
rhumerus -37.0342 33.9345 -62.8553
rradius 64.0134
rwrist 23.572
rhand -2.11469 -6.05855
rfingers 7.12502
rthumb 23.5634 -34.635
lclavicle 6.01324e-015 -5.96354e-015
lhumerus -45.7243 -27.5564 70.8752
lradius 77.0729
lwrist -13.0293
lhand 6.33004 18.5776
lfingers 7.12502
lthumb 31.6378 45.8555
rfemur -39.4097 18.2178 7.58517
rtibia 28.9667
rfoot -20.5934 -30.6148
rtoes 5.00292
lfemur -36.5052 -9.29987 -14.8959
ltibia 23.4912
lfoot -11.9506 18.4346
ltoes -3.60109
1074
root -4.30075 17.4013 20.1209 28.0804 4.79352 1.21538
lowerback -17.0725 -0.273179 0.215038
upperback -14.3005 -0.325679 0.202758
thorax -5.84866 -0.15065 0.0556542
lowerneck -15.2984 -5.03107 -8.2952
upperneck 30.9326 -6.17456 3.80962
head 13.3575 -3.19458 1.92794
rclavicle -7.45443e-016 9.14409e-015
rhumerus -36.5582 34.5504 -62.4674
rradius 66.7365
rwrist 23.4909
rhand -2.35697 -5.73169
rfingers 7.12502
rthumb 23.331 -34.3378
lclavicle -7.45443e-016 9.14409e-015
lhumerus -45.0105 -28.0492 70.3251
lradius 79.8272
lwrist -13.8969
lhand 6.00337 17.7851
lfingers 7.12502
lthumb 31.3265 45.1238
rfemur -39.391 18.1428 7.63373
rtibia 28.9736
rfoot -20.5246 -30.542
rtoes 4.93148
lfemur -36.4863 -9.31489 -14.8871
ltibia 23.4908
lfoot -11.9411 18.4563
ltoes -3.59738
1075
root -4.3027 17.4015 20.1174 28.0521 4.78048 1.2137
lowerback -17.0986 -0.275406 0.199522
upperback -14.3078 -0.326813 0.20566
thorax -5.84334 -0.149799 0.067218
lowerneck -15.3273 -5.01906 -8.28194
upperneck 31.0444 -6.14328 3.752
head 13.4064 -3.18734 1.90838
rclavicle 6.55989e-015 9.93923e-016
rhumerus -35.9711 34.9952 -61.94
rradius 69.4664
rwrist 23.2903
rhand -2.4605 -5.38536
rfingers 7.12502
rthumb 23.2317 -34.0041
lclavicle 6.55989e-015 9.93923e-016
lhumerus -44.1716 -28.3662 69.5959
lradius 82.5798
lwrist -14.3907
lhand 5.75945 17.1072
lfingers 7.12502
lthumb 31.0941 44.4907
rfemur -39.3738 18.0766 7.67996
rtibia 28.9796
rfoot -20.458 -30.4737
rtoes 4.86006
lfemur -36.465 -9.32965 -14.8764
ltibia 23.4889
lfoot -11.9366 18.4826
ltoes -3.57716
1076
root -4.30467 17.4018 20.1141 28.0257 4.76153 1.21178
lowerback -17.1265 -0.276321 0.184416
upperback -14.3164 -0.326311 0.20804
thorax -5.83849 -0.148196 0.0781847
lowerneck -15.3527 -5.00744 -8.26176
upperneck 31.1552 -6.1113 3.68376
head 13.4536 -3.18048 1.88357
rclavicle 3.42904e-015 9.93923e-015
rhumerus -35.2837 35.2777 -61.2891
rradius 72.1957
rwrist 22.958
rhand -2.37065 -5.07191
rfingers 7.12502
rthumb 23.3178 -33.6797
lclavicle 3.42904e-015 9.93923e-015
lhumerus -43.2158 -28.5203 68.7144
lradius 85.3263
lwrist -14.464
lhand 5.5617 16.5876
lfingers 7.12502
lthumb 30.9056 44.007
rfemur -39.3591 18.0228 7.71929
rtibia 28.9839
rfoot -20.3953 -30.4125
rtoes 4.78871
lfemur -36.4439 -9.34225 -14.8667
ltibia 23.4877
lfoot -11.9369 18.5114
ltoes -3.55016
1077
root -4.30659 17.4021 20.1111 27.9959 4.73983 1.20818
lowerback -17.1529 -0.274302 0.174177
upperback -14.325 -0.32257 0.207944
thorax -5.83458 -0.145486 0.0841736
lowerneck -15.3762 -4.99558 -8.24183
upperneck 31.2673 -6.08004 3.61869
head 13.5012 -3.17362 1.85994
rclavicle 1.21756e-014 5.1684e-015
rhumerus -34.5003 35.3879 -60.5252
rradius 74.9187
rwrist 22.5245
rhand -2.08381 -4.8049
rfingers 7.12502
rthumb 23.593 -33.3776
lclavicle 1.21756e-014 5.1684e-015
lhumerus -42.1515 -28.5307 67.706
lradius 88.0661
lwrist -14.1171
lhand 5.37235 16.2951
lfingers 7.12502
lthumb 30.7251 43.7486
rfemur -39.341 17.9924 7.75073
rtibia 28.9855
rfoot -20.3482 -30.3674
rtoes 4.74477
lfemur -36.4173 -9.35515 -14.8563
ltibia 23.4873
lfoot -11.942 18.5429
ltoes -3.5127
1078
root -4.30853 17.4024 20.1083 27.966 4.71607 1.20196
lowerback -17.178 -0.269036 0.168702
upperback -14.3339 -0.315152 0.20562
thorax -5.83175 -0.141416 0.0855571
lowerneck -15.3961 -4.98417 -8.22535
upperneck 31.3764 -6.05153 3.56263
head 13.5477 -3.16723 1.84001
rclavicle 1.54058e-015 1.15295e-014
rhumerus -33.6413 35.3017 -59.6639
rradius 77.6329
rwrist 22.0473
rhand -1.63277 -4.55876
rfingers 7.12502
rthumb 24.0256 -33.075
lclavicle 1.54058e-015 1.15295e-014
lhumerus -40.9767 -28.398 66.5853
lradius 90.7844
lwrist -13.4084
lhand 5.1506 16.2023
lfingers 7.12502
lthumb 30.5136 43.6953
rfemur -39.3218 17.9609 7.78584
rtibia 28.9849
rfoot -20.3 -30.3176
rtoes 4.70323
lfemur -36.391 -9.36341 -14.845
ltibia 23.4895
lfoot -11.9486 18.5737
ltoes -3.48002
